Coordinates
version=1
nRows=5
nColumns=40
inDegrees=yes

Units are S.I. units (second, meters, Newtons, ...)
If the header above contains a line with 'inDegrees', this indicates whether rotational values are in degrees (yes) or radians (no).

endheader
time	pelvis_tilt	pelvis_list	pelvis_rotation	pelvis_tx	pelvis_ty	pelvis_tz	hip_flexion_r	hip_adduction_r	hip_rotation_r	knee_angle_r	knee_angle_r_beta	ankle_angle_r	subtalar_angle_r	mtp_angle_r	hip_flexion_l	hip_adduction_l	hip_rotation_l	knee_angle_l	knee_angle_l_beta	ankle_angle_l	subtalar_angle_l	mtp_angle_l	lumbar_extension	lumbar_bending	lumbar_rotation	arm_flex_r	arm_add_r	arm_rot_r	elbow_flex_r	pro_sup_r	wrist_flex_r	wrist_dev_r	arm_flex_l	arm_add_l	arm_rot_l	elbow_flex_l	pro_sup_l	wrist_flex_l	wrist_dev_l
      5.35000000	    -11.65310045	     -1.57029045	     -0.38482944	     -0.36710791	      0.91045237	     -0.76581211	     47.81929205	      0.60075456	    -13.25287223	     67.25882274	      1.17388791	     20.76129794	      0.00000000	      0.00000000	     24.93880832	    -21.21020749	    -10.03891731	     99.01787854	      1.72818800	    -34.64529083	      0.00000000	      0.00000000	     -4.63036460	      9.23284252	      9.52777735	     89.96018088	    -17.90810486	     17.41199593	     45.21957826	     77.06413485	      0.00000000	      0.00000000	     89.95457602	     -8.49944340	     20.34344974	     43.02496433	     79.61419169	      0.00000000	      0.00000000
      5.35500000	    -11.73714983	     -1.51711502	     -0.41533596	     -0.36738095	      0.91010471	     -0.76598044	     47.97228698	      0.52961983	    -13.25066327	     67.34495267	      1.17539116	     20.66991585	      0.00000000	      0.00000000	     25.02173340	    -21.19051780	     -9.96623451	     99.01180588	      1.72808201	    -34.57187040	      0.00000000	      0.00000000	     -4.57926272	      9.19629232	      9.55095279	     89.96023140	    -17.92464820	     17.05262696	     45.16954744	     80.45781156	      0.00000000	      0.00000000	     89.95458253	     -8.45326035	     19.81446752	     42.95096889	     83.22319473	      0.00000000	      0.00000000
      5.36000000	    -11.73153882	     -1.50891284	     -0.46951437	     -0.36750673	      0.90981374	     -0.76602856	     48.00188439	      0.53593831	    -13.23991821	     67.40417898	      1.17642485	     20.76342269	      0.00000000	      0.00000000	     24.99719623	    -21.26572904	     -9.94544397	     99.05041288	      1.72875583	    -34.59346195	      0.00000000	      0.00000000	     -4.62060301	      9.20206537	      9.60097742	     89.96026393	    -17.94238710	     17.43852669	     45.25523042	     76.94574973	      0.00000000	      0.00000000	     89.95457306	     -8.47326131	     20.29834048	     43.04761432	     79.61432224	      0.00000000	      0.00000000
      5.36500000	    -11.77144036	     -1.52354590	     -0.47676975	     -0.36765371	      0.90950720	     -0.76615351	     48.08104196	      0.53184976	    -13.24466747	     67.45122525	      1.17724597	     20.71101357	      0.00000000	      0.00000000	     25.04827792	    -21.30068956	     -9.81288031	     99.07550017	      1.72919369	    -34.57625294	      0.00000000	      0.00000000	     -4.60313741	      9.24378991	      9.62069120	     89.96035060	    -17.95685586	     17.10504070	     45.22055875	     79.97222957	      0.00000000	      0.00000000	     89.95446330	     -8.42377740	     19.80770192	     42.95920265	     83.29917256	      0.00000000	      0.00000000
      5.37000000	    -11.78691075	     -1.51235469	     -0.51792548	     -0.36777060	      0.90917904	     -0.76622258	     48.14015248	      0.51460946	    -13.25727455	     67.53206696	      1.17865692	     20.77158462	      0.00000000	      0.00000000	     25.04498090	    -21.37297278	     -9.79319341	     99.07618357	      1.72920561	    -34.58409283	      0.00000000	      0.00000000	     -4.61959538	      9.24412748	      9.67330903	     89.96038863	    -18.00601344	     17.54105664	     45.35447221	     75.82746169	      0.00000000	      0.00000000	     89.95442744	     -8.41512537	     20.39450641	     43.02607542	     78.59478037	      0.00000000	      0.00000000
